<svg width="57" height="55" viewBox="0 0 57 55" fill="none" xmlns="http://www.w3.org/2000/svg">
    <path d="M28.8476 1.14707L1.7355 23.4207L28.8476 45.7047L55.9596 23.4207L28.8476 1.14707Z" fill="white"/>
    <path d="M28.8477 46.4866C28.6703 46.4716 28.504 46.394 28.3785 46.2676L1.26643 23.9836C1.1778 23.9098 1.1066 23.8173 1.05792 23.7127C1.00925 23.6082 0.984302 23.4941 0.984873 23.3788C0.986381 23.2638 1.01225 23.1504 1.06079 23.0462C1.10932 22.9419 1.17941 22.8492 1.26643 22.774L28.3785 0.500348C28.5219 0.372099 28.7075 0.301201 28.8999 0.301201C29.0923 0.301201 29.2779 0.372099 29.4213 0.500348L56.5333 22.774C56.6204 22.8492 56.6904 22.9419 56.739 23.0462C56.7875 23.1504 56.8134 23.2638 56.8149 23.3788C56.8155 23.4941 56.7905 23.6082 56.7418 23.7127C56.6932 23.8173 56.622 23.9098 56.5333 23.9836L29.4213 46.2676C29.3465 46.3425 29.2568 46.4007 29.1579 46.4384C29.0591 46.4762 28.9534 46.4926 28.8477 46.4866ZM2.96615 23.4205L28.8477 44.693L54.7293 23.4205L28.8477 2.15838L2.96615 23.4205Z" fill="#366EFF"/>
    <path d="M48.1392 7.40363H9.55661V53.2856H48.1392V7.40363Z" fill="white"/>
    <path d="M37.3361 20.9597L24.1555 31.794V53.2856H48.1392V20.9597H37.3361Z" fill="white"/>
    <path d="M37.3361 20.9597L24.1555 31.794V53.2856H48.1392V20.9597H37.3361Z" fill="white"/>
    <path d="M48.1912 54.0675H9.60865C9.40207 54.0648 9.20471 53.9816 9.05862 53.8355C8.91253 53.6894 8.82927 53.492 8.82657 53.2855V7.40351C8.832 7.19972 8.9168 7.00611 9.06289 6.86392C9.20897 6.72173 9.40479 6.6422 9.60865 6.64227H48.1912C48.3986 6.64227 48.5976 6.72467 48.7442 6.87133C48.8909 7.018 48.9733 7.21693 48.9733 7.42435V53.3063C48.9653 53.5092 48.8797 53.7014 48.7341 53.843C48.5886 53.9847 48.3943 54.065 48.1912 54.0675ZM10.3386 52.5242H47.357V8.20643H10.3386V52.5242Z" fill="#366EFF"/>
    <path d="M41.361 14.4423H29.1919C28.9844 14.4423 28.7855 14.3598 28.6389 14.2132C28.4922 14.0665 28.4098 13.8676 28.4098 13.6602C28.4098 13.4528 28.4922 13.2538 28.6389 13.1072C28.7855 12.9605 28.9844 12.8781 29.1919 12.8781H41.361C41.5684 12.8781 41.7674 12.9605 41.914 13.1072C42.0607 13.2538 42.1431 13.4528 42.1431 13.6602C42.1431 13.8676 42.0607 14.0665 41.914 14.2132C41.7674 14.3598 41.5684 14.4423 41.361 14.4423Z" fill="#366EFF"/>
    <path d="M25.0207 14.4423H16.3344C16.127 14.4423 15.9281 14.3598 15.7814 14.2132C15.6348 14.0665 15.5524 13.8676 15.5524 13.6602C15.5524 13.4528 15.6348 13.2538 15.7814 13.1072C15.9281 12.9605 16.127 12.8781 16.3344 12.8781H25.0207C25.2282 12.8781 25.4271 12.9605 25.5738 13.1072C25.7204 13.2538 25.8028 13.4528 25.8028 13.6602C25.8028 13.8676 25.7204 14.0665 25.5738 14.2132C25.4271 14.3598 25.2282 14.4423 25.0207 14.4423Z" fill="#366EFF"/>
    <path d="M41.3608 19.6561H33.3627C33.1553 19.6561 32.9564 19.5737 32.8097 19.4271C32.663 19.2804 32.5806 19.0815 32.5806 18.8741C32.5806 18.6666 32.663 18.4677 32.8097 18.321C32.9564 18.1744 33.1553 18.092 33.3627 18.092H41.3608C41.5682 18.092 41.7671 18.1744 41.9138 18.321C42.0605 18.4677 42.1428 18.6666 42.1428 18.8741C42.1428 19.0815 42.0605 19.2804 41.9138 19.4271C41.7671 19.5737 41.5682 19.6561 41.3608 19.6561Z" fill="#366EFF"/>
    <path d="M29.1918 19.6561H16.3344C16.127 19.6561 15.9281 19.5737 15.7814 19.4271C15.6348 19.2804 15.5524 19.0815 15.5524 18.8741C15.5524 18.6666 15.6348 18.4677 15.7814 18.321C15.9281 18.1744 16.127 18.092 16.3344 18.092H29.1918C29.3992 18.092 29.5982 18.1744 29.7448 18.321C29.8915 18.4677 29.9739 18.6666 29.9739 18.8741C29.9739 19.0815 29.8915 19.2804 29.7448 19.4271C29.5982 19.5737 29.3992 19.6561 29.1918 19.6561Z" fill="#366EFF"/>
    <path d="M41.361 24.87H27.1063C26.8988 24.87 26.6999 24.7876 26.5532 24.6409C26.4066 24.4943 26.3242 24.2954 26.3242 24.0879C26.3242 23.8805 26.4066 23.6816 26.5532 23.5349C26.6999 23.3883 26.8988 23.3059 27.1063 23.3059H41.361C41.5684 23.3059 41.7673 23.3883 41.914 23.5349C42.0606 23.6816 42.143 23.8805 42.143 24.0879C42.143 24.2954 42.0606 24.4943 41.914 24.6409C41.7673 24.7876 41.5684 24.87 41.361 24.87Z" fill="#366EFF"/>
    <path d="M22.9352 24.87H16.3344C16.127 24.87 15.9281 24.7876 15.7814 24.6409C15.6348 24.4943 15.5524 24.2954 15.5524 24.0879C15.5524 23.8805 15.6348 23.6816 15.7814 23.5349C15.9281 23.3883 16.127 23.3059 16.3344 23.3059H22.9352C23.1426 23.3059 23.3415 23.3883 23.4882 23.5349C23.6349 23.6816 23.7173 23.8805 23.7173 24.0879C23.7173 24.2954 23.6349 24.4943 23.4882 24.6409C23.3415 24.7876 23.1426 24.87 22.9352 24.87Z" fill="#366EFF"/>
    <path d="M41.361 30.0839H34.4057C34.1983 30.0839 33.9994 30.0015 33.8527 29.8548C33.706 29.7081 33.6236 29.5092 33.6236 29.3018C33.6236 29.0944 33.706 28.8955 33.8527 28.7488C33.9994 28.6021 34.1983 28.5197 34.4057 28.5197H41.361C41.5684 28.5197 41.7673 28.6021 41.914 28.7488C42.0607 28.8955 42.1431 29.0944 42.1431 29.3018C42.1431 29.5092 42.0607 29.7081 41.914 29.8548C41.7673 30.0015 41.5684 30.0839 41.361 30.0839Z" fill="#366EFF"/>
    <path d="M30.2346 30.0839H16.3344C16.127 30.0839 15.9281 30.0015 15.7814 29.8548C15.6348 29.7081 15.5524 29.5092 15.5524 29.3018C15.5524 29.0944 15.6348 28.8955 15.7814 28.7488C15.9281 28.6021 16.127 28.5197 16.3344 28.5197H30.2346C30.442 28.5197 30.6409 28.6021 30.7876 28.7488C30.9343 28.8955 31.0167 29.0944 31.0167 29.3018C31.0167 29.5092 30.9343 29.7081 30.7876 29.8548C30.6409 30.0015 30.442 30.0839 30.2346 30.0839Z" fill="#366EFF"/>
    <path d="M35.8031 35.2978H21.8925C21.6851 35.2978 21.4862 35.2153 21.3395 35.0687C21.1928 34.922 21.1104 34.7231 21.1104 34.5157C21.1104 34.3083 21.1928 34.1093 21.3395 33.9627C21.4862 33.816 21.6851 33.7336 21.8925 33.7336H35.8031C36.0105 33.7336 36.2094 33.816 36.3561 33.9627C36.5028 34.1093 36.5852 34.3083 36.5852 34.5157C36.5852 34.7231 36.5028 34.922 36.3561 35.0687C36.2094 35.2153 36.0105 35.2978 35.8031 35.2978Z" fill="#366EFF"/>
    <path d="M1.7355 23.4205V53.2855L19.9006 38.353L1.7355 23.4205Z" fill="white"/>
    <path d="M37.7948 38.353L55.9599 53.2855V23.4205L37.7948 38.353Z" fill="white"/>
    <path d="M28.8476 45.7046L19.9006 38.3531L1.7355 53.2856H55.9596L37.7946 38.3531L28.8476 45.7046Z" fill="white"/>
    <path d="M6.94974 31.8043V48.9996L17.4087 40.4072L6.94974 31.8043Z" fill="white"/>
    <path d="M6.94974 31.8043V48.9996L17.4087 40.4072L6.94974 31.8043Z" fill="white"/>
    <path d="M46.0952 40.1153L55.9599 48.228V32.0129L46.0952 40.1153Z" fill="white"/>
    <path d="M46.0952 40.1153L55.9599 48.228V32.0129L46.0952 40.1153Z" fill="white"/>
    <path d="M1.73563 54.0676C1.61945 54.066 1.50523 54.0374 1.40195 53.9841C1.2684 53.9225 1.15524 53.824 1.0758 53.7002C0.996359 53.5765 0.953938 53.4326 0.953552 53.2855V23.4205C0.953938 23.2734 0.996359 23.1295 1.0758 23.0057C1.15524 22.882 1.2684 22.7835 1.40195 22.7218C1.53554 22.6566 1.68497 22.6307 1.83272 22.6474C1.98047 22.664 2.12041 22.7224 2.23616 22.8157L20.4013 37.7482C20.4891 37.8226 20.5597 37.9152 20.6081 38.0197C20.6565 38.1241 20.6816 38.2379 20.6816 38.353C20.6816 38.4681 20.6565 38.5819 20.6081 38.6863C20.5597 38.7908 20.4891 38.8834 20.4013 38.9578L2.23616 53.8798C2.09701 54.0001 1.91951 54.0666 1.73563 54.0676ZM2.51771 25.0785V51.6275L18.6703 38.353L2.51771 25.0785Z" fill="#366EFF"/>
    <path d="M42.9774 42.6074L31.5591 51.9923L23.5923 45.4437L14.0613 53.2854H55.9599L42.9774 42.6074Z" fill="white"/>
    <path d="M42.9774 42.6074L31.5591 51.9923L23.5923 45.4437L14.0613 53.2854H55.9599L42.9774 42.6074Z" fill="white"/>
    <path d="M55.9601 54.0676C55.7762 54.0666 55.5987 54.0001 55.4596 53.8799L37.2945 38.9682C37.2066 38.8938 37.136 38.8012 37.0876 38.6967C37.0392 38.5923 37.0141 38.4786 37.0141 38.3634C37.0141 38.2483 37.0392 38.1345 37.0876 38.0301C37.136 37.9256 37.2066 37.833 37.2945 37.7586L55.4908 22.8157C55.6066 22.7224 55.7465 22.664 55.8943 22.6474C56.042 22.6307 56.1915 22.6566 56.3251 22.7218C56.4586 22.7835 56.5718 22.882 56.6512 23.0057C56.7307 23.1295 56.7731 23.2734 56.7734 23.4205V53.2855C56.7731 53.4326 56.7307 53.5765 56.6512 53.7002C56.5718 53.824 56.4586 53.9225 56.3251 53.9841C56.2124 54.0423 56.0868 54.071 55.9601 54.0676ZM39.0255 38.353L55.178 51.6275V25.0785L39.0255 38.353Z" fill="#366EFF"/>
    <path d="M55.9597 54.0676H1.73557C1.57368 54.0668 1.41595 54.0163 1.28359 53.9231C1.15122 53.8299 1.05059 53.6984 0.995208 53.5463C0.942931 53.3947 0.93786 53.2308 0.980681 53.0762C1.0235 52.9217 1.1122 52.7838 1.23504 52.6807L19.4001 37.7482C19.5435 37.62 19.7291 37.5491 19.9215 37.5491C20.1139 37.5491 20.2995 37.62 20.4429 37.7482L28.8894 44.6931L37.3358 37.7482C37.4792 37.62 37.6648 37.5491 37.8572 37.5491C38.0496 37.5491 38.2352 37.62 38.3786 37.7482L56.5437 52.6807C56.6665 52.7838 56.7552 52.9217 56.798 53.0762C56.8408 53.2308 56.8358 53.3947 56.7835 53.5463C56.7239 53.7125 56.6105 53.8541 56.4613 53.9486C56.312 54.0431 56.1355 54.085 55.9597 54.0676ZM3.91496 52.5243H53.7803L37.7633 39.3646L29.3169 46.3094C29.1735 46.4377 28.9879 46.5086 28.7955 46.5086C28.6031 46.5086 28.4175 46.4377 28.2741 46.3094L19.8277 39.3646L3.91496 52.5243Z" fill="#366EFF"/>
</svg>
